#N canvas 207 113 735 359 10;
#X obj 32 33 inlet;
#X text 70 32 bang to generate random value;
#X obj 393 33 inlet;
#X text 431 32 maximum value to produce;
#X obj 372 73 f \$1;
#X obj 32 55 t b b b;
#X obj 278 154 random;
#X obj 339 152 random;
#X obj 372 94 int;
#X obj 372 115 t f f;
#X obj 290 295 outlet;
#X obj 290 250 f;
#X obj 351 251 f;
#X obj 278 173 t f f;
#X obj 339 173 t f f;
#X obj 278 202 <;
#X obj 278 224 sel 1 0;
#X connect 0 0 5 0;
#X connect 2 0 4 1;
#X connect 4 0 8 0;
#X connect 5 0 6 0;
#X connect 5 1 7 0;
#X connect 5 2 4 0;
#X connect 6 0 13 0;
#X connect 7 0 14 0;
#X connect 8 0 9 0;
#X connect 9 0 6 1;
#X connect 9 1 7 1;
#X connect 11 0 10 0;
#X connect 12 0 10 0;
#X connect 13 0 15 0;
#X connect 13 1 11 1;
#X connect 14 0 15 1;
#X connect 14 1 12 1;
#X connect 15 0 16 0;
#X connect 16 0 11 0;
#X connect 16 1 12 0;
