#N canvas 230 126 1058 660 10;
#X obj 383 3 inlet;
#X text 419 3 integer from 0 to 1000;
#X obj 80 22 inlet;
#X text 116 22 bang/stop messages;
#X msg 7 23 bang;
#X msg 44 23 stop;
#X floatatom 383 22 5 0 0 0 - - -;
#X text 5 4 \$1 is name of a table containing a soundfile for playback
;
#X obj 80 122 moses;
#X obj 133 210 int;
#X obj 80 70 random 1000;
#X floatatom 80 91 5 0 0 0 - - -;
#X obj 80 432 tabplay~ \$1;
#X obj 80 478 *~;
#X obj 80 189 t b b;
#X obj 80 210 int;
#X obj 105 210 + 1;
#X obj 80 231 mod 2;
#X obj 80 279 pack;
#X obj 80 299 route 0 1;
#X floatatom 80 252 5 0 0 0 - - -;
#X obj 153 432 cos~;
#X obj 153 394 line~;
#X obj 80 369 + 240;
#X obj 80 329 t f b b;
#X obj 207 432 tabplay~ \$1;
#X obj 207 478 *~;
#X obj 288 432 cos~;
#X obj 288 394 line~;
#X obj 207 369 + 240;
#X obj 207 329 t f b b;
#X floatatom 133 231 15 0 0 0 - - -;
#X obj 133 251 moses 4e+06;
#X obj 196 271 s \$0-reset;
#X obj 148 165 r \$0-reset;
#X msg 148 185 0;
#X text 205 252 assuming 4e+06 elements in soundfile;
#X text 201 210 assuming sampling rate of 48kHz;
#X obj 435 430 tabplay~ \$1;
#X obj 435 476 *~;
#X obj 435 208 int;
#X obj 460 208 + 1;
#X obj 435 229 mod 2;
#X floatatom 435 250 5 0 0 0 - - -;
#X obj 562 430 cos~;
#X obj 562 392 line~;
#X obj 615 430 tabplay~ \$1;
#X obj 615 476 *~;
#X obj 740 430 cos~;
#X obj 740 392 line~;
#X msg 435 188 bang;
#X obj 435 272 sel 0 1;
#X obj 435 310 t b b b;
#X obj 615 310 t b b b;
#X obj 435 367 random 3.9e+06;
#X obj 615 367 random 3.9e+06;
#X obj 778 553 *~;
#X obj 793 459 line~;
#X obj 793 437 pack;
#X obj 793 334 t f b;
#X obj 793 379 / 1000;
#X obj 793 359 min 1000;
#X msg 848 359 5;
#X obj 778 630 outlet~;
#X obj 383 40 t f f b f;
#X floatatom 727 121 5 0 0 0 - - -;
#X obj 727 150 moses;
#X obj 778 598 moog~;
#X obj 937 359 line~;
#X obj 975 359 line~;
#X msg 781 245 1 5;
#X obj 727 174 t b b;
#X obj 766 174 t b b b b;
#X msg 727 245 18000 5;
#X obj 868 276 pack;
#X msg 889 225 5;
#X obj 809 224 random 14900;
#X obj 809 245 + 100;
#X obj 918 288 pack;
#X msg 1017 225 5;
#X obj 918 246 / 100;
#X obj 918 267 + 1;
#X obj 918 225 random-lini 300;
#X text 796 398 sqrt?;
#X obj 727 102 random-lind 1000;
#X msg 118 369 0 10;
#X msg 153 369 0.25 10;
#X msg 251 369 0 10;
#X msg 288 369 0.25 10;
#X msg 527 367 0 10;
#X msg 562 367 0.25 10;
#X msg 706 367 0 10;
#X msg 740 367 0.25 10;
#X text 13 412 again \, 48k;
#X msg 80 412 \$1 4800;
#X msg 207 412 \$1 4800;
#X msg 435 410 \$1 4800;
#X msg 615 410 \$1 4800;
#X obj 80 49 metro 95;
#X obj 159 210 + 4800;
#X text 798 2 wb-player~.pd;
#X text 798 15 testing wikibeat granular synthesis;
#X text 797 28 updated 2012.07.11 cb;
#X connect 0 0 6 0;
#X connect 2 0 98 0;
#X connect 4 0 98 0;
#X connect 5 0 98 0;
#X connect 6 0 64 0;
#X connect 8 0 14 0;
#X connect 8 1 50 0;
#X connect 9 0 31 0;
#X connect 9 0 99 0;
#X connect 10 0 11 0;
#X connect 11 0 8 0;
#X connect 12 0 13 0;
#X connect 13 0 56 0;
#X connect 14 0 15 0;
#X connect 14 1 9 0;
#X connect 15 0 16 0;
#X connect 15 0 17 0;
#X connect 16 0 15 1;
#X connect 17 0 20 0;
#X connect 18 0 19 0;
#X connect 19 0 24 0;
#X connect 19 1 30 0;
#X connect 20 0 18 0;
#X connect 21 0 13 1;
#X connect 22 0 21 0;
#X connect 23 0 94 0;
#X connect 24 0 23 0;
#X connect 24 1 85 0;
#X connect 24 2 88 0;
#X connect 25 0 26 0;
#X connect 26 0 56 0;
#X connect 27 0 26 1;
#X connect 28 0 27 0;
#X connect 29 0 95 0;
#X connect 30 0 29 0;
#X connect 30 1 87 0;
#X connect 30 2 86 0;
#X connect 31 0 32 0;
#X connect 32 0 18 1;
#X connect 32 1 33 0;
#X connect 34 0 35 0;
#X connect 35 0 9 1;
#X connect 38 0 39 0;
#X connect 39 0 56 0;
#X connect 40 0 41 0;
#X connect 40 0 42 0;
#X connect 41 0 40 1;
#X connect 42 0 43 0;
#X connect 43 0 51 0;
#X connect 44 0 39 1;
#X connect 45 0 44 0;
#X connect 46 0 47 0;
#X connect 47 0 56 0;
#X connect 48 0 47 1;
#X connect 49 0 48 0;
#X connect 50 0 40 0;
#X connect 51 0 52 0;
#X connect 51 1 53 0;
#X connect 52 0 54 0;
#X connect 52 1 89 0;
#X connect 52 2 92 0;
#X connect 53 0 55 0;
#X connect 53 1 91 0;
#X connect 53 2 90 0;
#X connect 54 0 96 0;
#X connect 55 0 97 0;
#X connect 56 0 67 0;
#X connect 57 0 56 1;
#X connect 58 0 57 0;
#X connect 59 0 61 0;
#X connect 59 1 62 0;
#X connect 60 0 58 0;
#X connect 61 0 60 0;
#X connect 62 0 58 1;
#X connect 64 0 8 1;
#X connect 64 1 59 0;
#X connect 64 2 84 0;
#X connect 64 3 66 1;
#X connect 65 0 66 0;
#X connect 66 0 71 0;
#X connect 66 1 72 0;
#X connect 67 0 63 0;
#X connect 68 0 67 1;
#X connect 69 0 67 2;
#X connect 70 0 69 0;
#X connect 71 0 73 0;
#X connect 71 1 70 0;
#X connect 72 0 76 0;
#X connect 72 1 75 0;
#X connect 72 2 82 0;
#X connect 72 3 79 0;
#X connect 73 0 68 0;
#X connect 74 0 68 0;
#X connect 75 0 74 1;
#X connect 76 0 77 0;
#X connect 77 0 74 0;
#X connect 78 0 69 0;
#X connect 79 0 78 1;
#X connect 80 0 81 0;
#X connect 81 0 78 0;
#X connect 82 0 80 0;
#X connect 84 0 65 0;
#X connect 85 0 22 0;
#X connect 86 0 22 0;
#X connect 87 0 28 0;
#X connect 88 0 28 0;
#X connect 89 0 45 0;
#X connect 90 0 45 0;
#X connect 91 0 49 0;
#X connect 92 0 49 0;
#X connect 94 0 12 0;
#X connect 95 0 25 0;
#X connect 96 0 38 0;
#X connect 97 0 46 0;
#X connect 98 0 10 0;
#X connect 99 0 9 1;
