#N canvas 170 107 1049 771 10;
#X obj 9 12 udpreceive 9999;
#X obj 9 31 unpackOSC;
#X obj 9 50 routeOSC /wikibeat;
#X obj 9 69 routeOSC /1 /2;
#X text 107 8 the sort of code you'll need to get;
#X text 106 20 data from backbeat.py once you are;
#X text 105 33 ready to work on live data;
#X obj 372 37 metro 1000;
#X obj 372 58 random 10;
#X msg 372 14 bang;
#X msg 405 14 stop;
#X floatatom 372 78 5 0 0 0 - - -;
#X obj 372 109 +;
#X msg 472 38 0;
#X msg 471 59 50;
#X msg 472 80 120;
#X text 496 37 simulate low-frequency database;
#X text 499 58 mid-frequency database (ES);
#X text 500 78 high-frequency database (EN);
#X floatatom 372 130 5 0 0 0 - - -;
#X text 406 130 edits per minute \, updated each second;
#X obj 372 216 *;
#X msg 387 193 -1;
#X msg 415 193 1;
#X text 442 193 use as increment or decrement;
#X obj 415 173 r \$0-inc;
#X obj 387 153 r \$0-dec;
#X obj 470 173 loadbang;
#X obj 223 102 table source1;
#X obj 223 121 table source2;
#X obj 10 122 openpanel;
#X msg 10 101 bang;
#X msg 161 141 read -resize \$1 source1;
#X obj 161 121 openpanel;
#X msg 161 100 bang;
#X msg 10 142 read -resize \$1 source2;
#X obj 10 166 soundfiler;
#X obj 399 271 int;
#X obj 372 248 t f b;
#X obj 372 297 +;
#X floatatom 372 319 5 0 0 0 - - -;
#X obj 372 340 moses 0;
#X msg 372 361 bang;
#X obj 372 382 s \$0-inc;
#X obj 433 382 moses 1000;
#X msg 490 402 bang;
#X obj 490 422 s \$0-dec;
#X obj 414 249 r \$0-storevalue;
#X text 500 383 1000 as current maximum value;
#X obj 472 464 s \$0-storevalue;
#X obj 328 628 dac~;
#X msg 328 438 bang;
#X msg 362 438 stop;
#X obj 433 442 t f f f;
#X obj 452 484 - 1000;
#X obj 452 504 abs;
#X floatatom 452 524 5 0 0 0 - - -;
#X text 436 14 fake data source for now because i am lazy;
#X obj 328 564 wb-player~ source1;
#X obj 450 565 wb-player~ source2;
#X connect 0 0 1 0;
#X connect 1 0 2 0;
#X connect 2 0 3 0;
#X connect 7 0 8 0;
#X connect 8 0 11 0;
#X connect 9 0 7 0;
#X connect 10 0 7 0;
#X connect 11 0 12 0;
#X connect 12 0 19 0;
#X connect 13 0 12 1;
#X connect 14 0 12 1;
#X connect 15 0 12 1;
#X connect 19 0 21 0;
#X connect 21 0 38 0;
#X connect 22 0 21 1;
#X connect 23 0 21 1;
#X connect 25 0 23 0;
#X connect 26 0 22 0;
#X connect 27 0 23 0;
#X connect 30 0 35 0;
#X connect 31 0 30 0;
#X connect 32 0 36 0;
#X connect 33 0 32 0;
#X connect 34 0 33 0;
#X connect 35 0 36 0;
#X connect 37 0 39 1;
#X connect 38 0 39 0;
#X connect 38 1 37 0;
#X connect 39 0 40 0;
#X connect 40 0 41 0;
#X connect 41 0 42 0;
#X connect 41 1 44 0;
#X connect 42 0 43 0;
#X connect 44 0 53 0;
#X connect 44 1 45 0;
#X connect 45 0 46 0;
#X connect 47 0 37 1;
#X connect 51 0 58 0;
#X connect 51 0 59 0;
#X connect 52 0 58 0;
#X connect 52 0 59 0;
#X connect 53 0 58 1;
#X connect 53 1 54 0;
#X connect 53 2 49 0;
#X connect 54 0 55 0;
#X connect 55 0 56 0;
#X connect 56 0 59 1;
#X connect 58 0 50 0;
#X connect 58 0 50 1;
#X connect 59 0 50 1;
#X connect 59 0 50 0;
